:SAMPLES-PER-SECOND 30
:FULLY-SPECIFIED
:DEGREES
419
root  20.3175 39.1137 -8.61293 179.123 -52.0013 175.804
RightUpLeg  -18.704 -7.9653 -5.30562
RightLeg  -0.223918 -19.9222 6.38818
RightFoot  -0.741649 -0.629949 6.74664
RightToes  0.000482159 0.542163 -0.142577
Spine  16.3387 -1.63436 -0.912274
Spine1  9.34039 -1.79648 -0.69152
HEad  -6.55758 22.8966 -15.9037
LeftShoulder1  9.26312 -14.2894 -45.3821
LeftArm  -12.9317 13.5821 -23.747
LeftForeArm  33.5506 -74.8489 -43.6256
LeftHand  -0.25398 0.0180481 5.50724
RightShoulder  5.02104 9.43371 32.8685
RightArm  -10.4355 -22.8488 24.7828
RightForeArm  32.0588 77.8346 83.0913
RightHand  0.519549 -14.2085 -7.87291
LeftUpLeg  12.3086 5.49252 -3.48545
LeftLeg  11.898 13.9518 -1.26217
LeftFoot  -19.1972 0.224359 1.60863
LeftToes  1.06248e-005 4.65854e-005 -8.185e-006
420
root  18.9114 38.749 -9.4826 179.658 -54.68 174.515
RightUpLeg  -18.6577 -8.08526 -5.73847
RightLeg  -4.18004 -17.0304 6.93978
RightFoot  -1.48073 -0.759106 8.63751
RightToes  0.000482159 0.542163 -0.142577
Spine  15.3202 -1.8855 -1.3635
Spine1  9.77007 -2.13266 -0.611778
HEad  -5.24802 21.6799 -15.0976
LeftShoulder1  9.26068 -14.2524 -45.468
LeftArm  -12.5467 13.3021 -24.0183
LeftForeArm  33.8271 -74.9125 -43.855
LeftHand  -0.25398 0.0180481 5.50724
RightShoulder  4.96108 9.31453 32.7616
RightArm  -10.8849 -23.3915 24.5859
RightForeArm  34.4467 77.8771 86.1543
RightHand  0.547253 -14.4404 -8.03303
LeftUpLeg  15.5253 5.68746 -3.42937
LeftLeg  12.1967 11.1427 -1.6018
LeftFoot  -20.8769 0.189826 0.78077
LeftToes  1.06248e-005 4.65854e-005 -8.185e-006
421
root  17.4557 38.4142 -10.417 179.462 -57.2224 173.884
RightUpLeg  -18.9218 -7.87634 -5.8444
RightLeg  -3.04829 -13.2765 5.9745
RightFoot  -1.5814 -0.68164 7.8822
RightToes  0.000482159 0.542163 -0.142577
Spine  14.811 -2.07972 -1.32107
Spine1  10.0275 -2.48151 -0.253663
HEad  -4.12633 20.4937 -14.4653
LeftShoulder1  9.21515 -14.1579 -45.487
LeftArm  -12.2074 13.4467 -24.4146
LeftForeArm  34.4335 -75.0536 -44.377
LeftHand  -0.25398 0.0180481 5.50724
RightShoulder  4.85014 9.11684 32.4886
RightArm  -10.9917 -23.7579 24.3563
RightForeArm  36.2789 77.8833 88.6447
RightHand  0.585153 -14.7762 -8.2247
LeftUpLeg  18.8879 6.79512 -2.17151
LeftLeg  13.1021 7.4599 -1.702
LeftFoot  -21.6355 0.0796558 -0.565041
LeftToes  1.06248e-005 4.65854e-005 -8.185e-006
422
root  15.9655 38.1676 -11.3778 177.694 -59.6301 175.034
RightUpLeg  -19.5138 -7.77253 -4.85634
RightLeg  1.86754 -10.7564 4.50802
RightFoot  2.1663 -0.357316 3.34227
RightToes  0.000482159 0.542163 -0.142577
Spine  14.8794 -2.45328 0.246414
Spine1  10.0648 -2.79422 -0.122749
HEad  -3.48024 19.3052 -14.1785
LeftShoulder1  9.12586 -14.006 -45.4353
LeftArm  -11.9475 14.0027 -24.7609
LeftForeArm  35.1549 -75.1895 -44.8516
LeftHand  -0.25398 0.0180481 5.50724
RightShoulder  4.71677 8.87007 32.1774
RightArm  -10.7562 -24.0291 24.0915
RightForeArm  38.3761 77.8719 91.2025
RightHand  0.621852 -15.0874 -8.40758
LeftUpLeg  22.0357 8.66177 0.676035
LeftLeg  14.7016 2.7572 -1.30664
LeftFoot  -21.499 -0.0747467 -2.2683
LeftToes  1.06248e-005 4.65854e-005 -8.185e-006
423
root  14.3998 37.9737 -12.3251 174.481 -61.3036 177.885
RightUpLeg  -20.7865 -10.3538 -2.13629
RightLeg  9.11817 -6.65356 2.48329
RightFoot  8.02734 0.296844 -1.46743
RightToes  0.000482159 0.542163 -0.142577
Spine  15.1534 -3.0041 3.69379
Spine1  9.94506 -2.66933 -1.07122
HEad  -3.3318 18.1856 -14.3969
LeftShoulder1  9.10293 -13.9171 -45.5567
LeftArm  -11.8238 14.8797 -24.8481
LeftForeArm  35.152 -75.159 -44.6924
LeftHand  -0.25398 0.0180481 5.50724
RightShoulder  4.64035 8.70379 32.0704
RightArm  -10.3289 -24.2105 23.7037
RightForeArm  40.107 77.8509 93.1811
RightHand  0.656968 -15.1159 -8.78915
LeftUpLeg  24.3498 9.89901 4.0495
LeftLeg  17.5305 -1.07754 -0.6691
LeftFoot  -20.7871 -0.33949 -5.63757
LeftToes  1.06248e-005 4.65854e-005 -8.185e-006
424
root  12.8139 37.8592 -13.2246 171.418 -62.1199 -179.058
RightUpLeg  -22.3743 -15.2044 1.29042
RightLeg  16.4802 -0.682356 0.348471
RightFoot  10.517 0.796037 -3.78978
RightToes  0.000482159 0.542163 -0.142577
Spine  15.188 -3.49186 7.62473
Spine1  9.92726 -2.1585 -2.55685
HEad  -3.41032 17.3942 -15.0112
LeftShoulder1  9.19761 -13.9038 -46.0832
LeftArm  -12.0221 15.9137 -24.6512
LeftForeArm  34.3191 -74.9745 -44.01
LeftHand  -0.25398 0.0180481 5.50724
RightShoulder  4.66698 8.7348 32.1914
RightArm  -9.70684 -23.839 23.1537
RightForeArm  38.6465 77.8521 92.0398
RightHand  0.693263 -14.6472 -9.63275
LeftUpLeg  24.3555 9.14037 6.24055
LeftLeg  22.9429 -1.26537 -0.154795
LeftFoot  -17.3597 -0.412643 -10.2612
LeftToes  1.06248e-005 4.65854e-005 -8.185e-006
425
root  11.3424 37.8451 -14.101 169.384 -63.2171 -176.528
RightUpLeg  -23.1371 -15.7671 2.0638
RightLeg  22.7493 -0.754065 -0.688246
RightFoot  7.41544 0.818382 -4.64745
RightToes  0.000482159 0.542163 -0.142577
Spine  14.8751 -3.82036 10.2784
Spine1  10.1865 -1.90947 -2.92143
HEad  -3.36413 16.8824 -15.4159
LeftShoulder1  9.29219 -13.8483 -46.724
LeftArm  -12.467 16.736 -24.4207
LeftForeArm  33.4323 -74.7899 -43.3743
LeftHand  -0.25398 0.0180481 5.50724
RightShoulder  4.75496 8.90488 32.3784
RightArm  -8.91247 -22.6617 22.5295
RightForeArm  33.2029 77.8309 87.1909
RightHand  0.720057 -14.0087 -10.6179
LeftUpLeg  20.4094 7.61504 7.46396
LeftLeg  32.4957 1.11071 1.17201
LeftFoot  -8.24935 0.348216 -12.3061
LeftToes  1.06248e-005 4.65854e-005 -8.185e-006
426
root  10.0908 37.8649 -14.9462 167.019 -65.5968 -173.313
RightUpLeg  -23.0482 -16.6425 2.42547
RightLeg  27.2629 -2.38818 -1.56943
RightFoot  2.38294 0.62276 -5.02294
RightToes  0.000482159 0.542163 -0.142577
Spine  14.5635 -4.24926 11.8652
Spine1  10.5846 -2.16751 -1.88149
HEad  -3.02079 16.0688 -14.9546
LeftShoulder1  9.28043 -13.7436 -46.9527
LeftArm  -12.6691 16.9008 -24.3417
LeftForeArm  32.9143 -74.6666 -42.9433
LeftHand  -0.25398 0.0180481 5.50724
RightShoulder  4.82033 9.02968 32.5187
RightArm  -8.28015 -21.2993 22.0146
RightForeArm  27.3793 77.7175 82.1309
RightHand  0.751053 -13.9268 -11.1141
LeftUpLeg  12.8985 5.45849 8.35839
LeftLeg  44.4958 3.37012 3.94476
LeftFoot  4.39911 1.21568 -9.19424
LeftToes  1.06248e-005 4.65854e-005 -8.185e-006
427
root  8.96269 37.924 -15.7402 163.475 -68.5483 -169.084
RightUpLeg  -22.0161 -18.5844 2.98217
RightLeg  29.8927 -3.45237 -2.38775
RightFoot  -1.33351 0.410556 -4.77147
RightToes  0.000482159 0.542163 -0.142577
Spine  14.5894 -4.68172 13.5455
Spine1  10.9019 -2.34894 -0.85478
HEad  -2.43898 14.497 -13.6496
LeftShoulder1  9.23025 -13.7138 -46.7759
LeftArm  -12.3631 16.3572 -24.3081
LeftForeArm  32.399 -74.5203 -42.4191
LeftHand  -0.25398 0.0180481 5.50724
RightShoulder  4.83101 9.03582 32.5849
RightArm  -8.12648 -20.557 21.7629
RightForeArm  24.5497 77.6296 79.9501
RightHand  0.801263 -14.5767 -11
LeftUpLeg  4.58008 2.93593 8.9294
LeftLeg  55.2241 4.0825 6.76574
LeftFoot  12.0521 0.830553 -4.2419
LeftToes  1.06248e-005 4.65854e-005 -8.185e-006
428
root  7.746 38.2382 -16.5573 161.798 -71.0688 -167.248
RightUpLeg  -19.3254 -20.516 2.30538
RightLeg  30.1961 -3.82015 -2.65325
RightFoot  -3.76106 0.226131 -3.78314
RightToes  0.000482159 0.542163 -0.142577
Spine  14.3351 -4.55054 14.2507
Spine1  11.2726 -2.05511 -0.744867
HEad  -1.70768 12.453 -12.1433
LeftShoulder1  9.24734 -13.7886 -46.6568
LeftArm  -12.0134 15.6611 -24.2048
LeftForeArm  31.6016 -74.3062 -41.6952
LeftHand  -0.25398 0.0180481 5.50724
RightShoulder  4.8272 9.02529 32.5869
RightArm  -8.24012 -20.3708 21.7844
RightForeArm  23.5794 77.5964 79.293
RightHand  0.837096 -15.2425 -10.7143
LeftUpLeg  -2.41201 1.85102 8.39543
LeftLeg  61.9915 4.02657 8.73605
LeftFoot  11.6845 0.14175 -1.00577
LeftToes  1.06248e-005 4.65854e-005 -8.185e-006
429
root  6.44753 38.6998 -17.382 163.567 -72.6427 -169.077
RightUpLeg  -15.7488 -21.991 0.661081
RightLeg  29.0685 -3.65159 -2.45421
RightFoot  -5.93943 0.0875737 -2.72142
RightToes  0.000482159 0.542163 -0.142577
Spine  13.9297 -3.83743 13.8376
Spine1  11.5477 -1.28842 -1.22841
HEad  -0.826426 10.5991 -10.951
LeftShoulder1  9.28843 -13.8448 -46.714
LeftArm  -12.2616 15.4967 -24.1378
LeftForeArm  30.9716 -74.1472 -41.1894
LeftHand  -0.25398 0.0180481 5.50724
RightShoulder  4.84654 9.06945 32.6053
RightArm  -8.13036 -20.0695 21.9654
RightForeArm  21.8264 77.5201 77.55
RightHand  0.834357 -15.2398 -10.6871
LeftUpLeg  -7.90055 2.93161 6.87883
LeftLeg  64.1698 3.81652 9.18594
LeftFoot  7.42923 0.0565766 -0.667433
LeftToes  1.06248e-005 4.65854e-005 -8.185e-006
430
root  5.13038 39.0984 -18.1871 166.541 -73.6496 -171.975
RightUpLeg  -12.2336 -23.4093 -0.956349
RightLeg  27.6385 -3.2257 -2.06412
RightFoot  -7.88986 0.0155064 -2.32004
RightToes  0.000482159 0.542163 -0.142577
Spine  13.5032 -3.01029 13.194
Spine1  11.6356 -0.435098 -1.66519
HEad  0.138831 9.20638 -10.1364
LeftShoulder1  9.24828 -13.8125 -46.5956
LeftArm  -13.1434 16.0418 -24.2194
LeftForeArm  31.1209 -74.2126 -41.4277
LeftHand  -0.25398 0.0180481 5.50724
RightShoulder  4.86942 9.08901 32.7272
RightArm  -7.67489 -19.438 22.2633
RightForeArm  19.5482 77.4034 75.2701
RightHand  0.82084 -14.7247 -11.0722
LeftUpLeg  -12.4655 4.97755 4.99771
LeftLeg  62.4954 3.47175 7.84895
LeftFoot  4.07279 0.219037 -1.78173
LeftToes  1.06248e-005 4.65854e-005 -8.185e-006
431
root  3.78963 39.4487 -18.9844 169.268 -74.4363 -174.534
RightUpLeg  -8.4312 -23.9094 -2.53026
RightLeg  25.5652 -3.50856 -1.45177
RightFoot  -9.22947 -0.0223245 -2.16133
RightToes  0.000482159 0.542163 -0.142577
Spine  13.094 -2.23092 12.6999
Spine1  11.4394 0.387903 -2.39059
HEad  1.02517 8.09009 -9.60619
LeftShoulder1  9.12999 -13.7422 -46.1755
LeftArm  -14.2 16.968 -24.3066
LeftForeArm  32.0761 -74.5208 -42.5189
LeftHand  -0.25398 0.0180481 5.50724
RightShoulder  4.86739 9.03639 32.873
RightArm  -7.13804 -18.848 22.7983
RightForeArm  18.6 77.3544 74.5005
RightHand  0.833704 -14.2675 -11.7552
LeftUpLeg  -16.207 7.14399 2.87699
LeftLeg  57.8086 3.27476 6.12416
LeftFoot  2.42131 0.176254 -1.56904
LeftToes  1.06248e-005 4.65854e-005 -8.185e-006
432
root  2.439 39.7509 -19.7451 170.898 -75.0782 -175.807
RightUpLeg  -4.38537 -21.651 -3.85589
RightLeg  22.7574 -6.19518 -0.640055
RightFoot  -10.2647 -0.0563453 -1.33949
RightToes  0.000482159 0.542163 -0.142577
Spine  12.4084 -1.51365 12.7221
Spine1  11.3546 1.22472 -3.69556
HEad  1.72 7.03254 -9.2849
LeftShoulder1  9.016 -13.6732 -45.7695
LeftArm  -15.1361 17.8586 -24.1966
LeftForeArm  33.4125 -74.937 -44.1093
LeftHand  -0.25398 0.0180481 5.50724
RightShoulder  4.85279 9.00147 32.8647
RightArm  -6.70027 -18.5009 23.6015
RightForeArm  19.1142 77.3895 75.1672
RightHand  0.86414 -14.102 -12.3468
LeftUpLeg  -19.1206 9.64966 0.875552
LeftLeg  50.6005 3.54411 5.03878
LeftFoot  0.741251 0.103094 -1.03325
LeftToes  1.06248e-005 4.65854e-005 -8.185e-006
